<?xml version="1.0" standalone="no"?>
<!DOCTYPE svg PUBLIC "-//W3C//DTD SVG 20010904//EN"
 "http://www.w3.org/TR/2001/REC-SVG-20010904/DTD/svg10.dtd">
<svg version="1.0" xmlns="http://www.w3.org/2000/svg"
 width="300.000000pt" height="300.000000pt" viewBox="0 0 300.000000 300.000000"
 preserveAspectRatio="xMidYMid meet">
<metadata>
Created by potrace 1.14, written by Peter Selinger 2001-2017
</metadata>
<g transform="translate(0.000000,300.000000) scale(0.100000,-0.100000)"
fill="#000000" stroke="none">
<path d="M727 2583 c-1 0 -31 -4 -67 -8 -36 -4 -68 -9 -71 -11 -4 -2 -24 -6
-45 -10 -50 -8 -207 -60 -259 -86 -125 -63 -223 -163 -252 -256 -31 -101 -7
-234 60 -331 78 -114 242 -240 342 -262 53 -12 58 -16 127 -103 201 -255 330
-407 430 -509 58 -60 69 -67 86 -58 49 26 126 193 141 302 14 101 24 294 25
461 1 76 4 138 7 138 6 0 42 -175 54 -265 3 -22 8 -92 11 -155 l6 -115 36 -34
c42 -39 138 -111 148 -111 3 0 18 -8 32 -19 44 -30 88 -34 104 -9 14 20 15 20
95 -30 292 -183 533 -253 744 -217 82 14 169 47 169 64 0 14 -5 14 -54 0 -57
-16 -182 -18 -262 -5 l-69 12 3 119 c9 299 -86 634 -304 1070 -97 194 -97 193
-144 222 -77 47 -188 75 -315 79 -66 2 -136 0 -155 -5 -27 -6 -45 -3 -80 14
-106 53 -267 100 -379 111 -55 6 -161 11 -164 7z"/>
<path d="M2442 1789 c-17 -18 -35 -44 -40 -58 -14 -42 -7 -122 17 -175 18 -42
136 -200 194 -261 11 -11 41 -53 68 -93 96 -146 110 -262 44 -360 -51 -75
-201 -162 -278 -162 -53 1 -114 35 -148 84 -27 38 -42 48 -108 72 -96 34 -231
97 -340 158 -46 25 -86 44 -88 42 -9 -8 28 -118 67 -203 90 -195 215 -318 385
-382 96 -36 245 -43 358 -17 241 56 406 258 408 501 2 188 -58 303 -267 513
-78 78 -149 158 -158 176 -20 43 -20 90 0 107 14 11 11 17 -28 51 -24 21 -46
38 -49 38 -4 0 -20 -14 -37 -31z"/>
</g>
</svg>
